<svg width="264" height="72" viewBox="0 0 295 72" fill="none" xmlns="http://www.w3.org/2000/svg">
<path d="M25.754 51.9344C39.9775 51.9344 51.5079 40.3085 51.5079 25.9672C51.5079 11.6259 39.9775 0 25.754 0C11.5304 0 0 11.6259 0 25.9672C0 40.3085 11.5304 51.9344 25.754 51.9344Z" fill="#C66E4E"/>
<path d="M27.8159 62.5574V35.088H46.413V40.4799H34.4007V46.1133H45.2291V51.5186H34.4007V62.5574H27.8159ZM49.7287 62.5574V41.9553H56.2337V62.5574H49.7287ZM52.9878 39.5544C52.0744 39.5544 51.2895 39.2504 50.6332 38.6423C49.977 38.0253 49.6488 37.2831 49.6488 36.4158C49.6488 35.5574 49.977 34.8242 50.6332 34.2161C51.2895 33.5991 52.0744 33.2906 52.9878 33.2906C53.9102 33.2906 54.695 33.5991 55.3425 34.2161C55.9987 34.8242 56.3269 35.5574 56.3269 36.4158C56.3269 37.2831 55.9987 38.0253 55.3425 38.6423C54.695 39.2504 53.9102 39.5544 52.9878 39.5544ZM66.8792 50.8078V62.5574H60.3742V41.9553H66.56V45.7377H66.786C67.2383 44.4769 68.0099 43.4888 69.1007 42.7734C70.1915 42.0492 71.4908 41.6871 72.9985 41.6871C74.4351 41.6871 75.6811 42.0134 76.7364 42.6661C77.8006 43.31 78.6255 44.2131 79.2108 45.3756C79.8049 46.5291 80.0975 47.8793 80.0888 49.4262V62.5574H73.5838V50.7139C73.5925 49.5693 73.3043 48.6751 72.719 48.0313C72.1426 47.3874 71.34 47.0656 70.3113 47.0656C69.6284 47.0656 69.0253 47.2176 68.502 47.5217C67.9878 47.8167 67.5886 48.2414 67.3048 48.7958C67.03 49.3502 66.8881 50.0209 66.8792 50.8078ZM91.5789 62.8525C90.0712 62.8525 88.7011 62.4591 87.4684 61.6721C86.2356 60.8852 85.2513 59.7049 84.5152 58.1311C83.7791 56.5574 83.411 54.6036 83.411 52.2698C83.411 49.8465 83.7924 47.8525 84.5551 46.2876C85.3177 44.7229 86.3155 43.5648 87.5482 42.8137C88.7897 42.0626 90.1245 41.6871 91.5523 41.6871C92.6254 41.6871 93.5432 41.8748 94.306 42.2504C95.0687 42.617 95.6983 43.0909 96.1949 43.6721C96.6915 44.2533 97.0685 44.8569 97.3256 45.4829H97.4586V35.088H103.964V62.5574H97.5252V59.2176H97.3256C97.0508 59.8524 96.6605 60.4471 96.155 61.0015C95.6495 61.5559 95.0154 62.003 94.2527 62.3428C93.499 62.6826 92.6076 62.8525 91.5789 62.8525ZM93.8403 57.7422C94.6297 57.7422 95.3036 57.5187 95.8624 57.0716C96.4211 56.6155 96.8512 55.9761 97.1527 55.1535C97.4543 54.3308 97.605 53.3651 97.605 52.2563C97.605 51.1297 97.4543 50.1595 97.1527 49.3457C96.8601 48.532 96.43 47.9061 95.8624 47.4679C95.3036 47.0298 94.6297 46.8107 93.8403 46.8107C93.0333 46.8107 92.3505 47.0343 91.7917 47.4814C91.2331 47.9285 90.8073 48.5589 90.5147 49.3725C90.2309 50.1862 90.089 51.1475 90.089 52.2563C90.089 53.3651 90.2353 54.3308 90.528 55.1535C90.8207 55.9761 91.2419 56.6155 91.7917 57.0716C92.3505 57.5187 93.0333 57.7422 93.8403 57.7422ZM106.721 35.088H114.077L119.837 46.5827H120.077L125.836 35.088H133.192L123.229 53.383V62.5574H116.684V53.383L106.721 35.088ZM140.772 62.9463C138.627 62.9463 136.782 62.5037 135.239 61.6184C133.704 60.7243 132.521 59.4813 131.686 57.8898C130.862 56.2891 130.45 54.4337 130.45 52.3233C130.45 50.2042 130.862 48.3487 131.686 46.757C132.521 45.1565 133.704 43.9135 135.239 43.0283C136.782 42.1342 138.627 41.6871 140.772 41.6871C142.918 41.6871 144.758 42.1342 146.293 43.0283C147.836 43.9135 149.019 45.1565 149.845 46.757C150.678 48.3487 151.095 50.2042 151.095 52.3233C151.095 54.4337 150.678 56.2891 149.845 57.8898C149.019 59.4813 147.836 60.7243 146.293 61.6184C144.758 62.5037 142.918 62.9463 140.772 62.9463ZM140.812 57.9971C141.593 57.9971 142.253 57.7556 142.794 57.2727C143.335 56.7898 143.748 56.1193 144.031 55.2608C144.324 54.4024 144.47 53.4098 144.47 52.2832C144.47 51.1387 144.324 50.1371 144.031 49.2787C143.748 48.4202 143.335 47.7496 142.794 47.2668C142.253 46.7839 141.593 46.5425 140.812 46.5425C140.006 46.5425 139.322 46.7839 138.764 47.2668C138.213 47.7496 137.792 48.4202 137.499 49.2787C137.216 50.1371 137.074 51.1387 137.074 52.2832C137.074 53.4098 137.216 54.4024 137.499 55.2608C137.792 56.1193 138.213 56.7898 138.764 57.2727C139.322 57.7556 140.006 57.9971 140.812 57.9971ZM167.61 53.6647V41.9553H174.102V62.5574H167.903V58.7213H167.69C167.238 59.9821 166.467 60.9836 165.376 61.7258C164.294 62.4591 162.985 62.8257 161.452 62.8257C160.059 62.8257 158.835 62.5037 157.779 61.8599C156.725 61.2161 155.904 60.3175 155.319 59.1639C154.733 58.0015 154.436 56.6423 154.428 55.0865V41.9553H160.932V53.7988C160.941 54.9165 161.234 55.7973 161.81 56.4412C162.387 57.0849 163.171 57.4069 164.165 57.4069C164.813 57.4069 165.393 57.2638 165.907 56.9776C166.43 56.6825 166.844 56.2578 167.144 55.7034C167.455 55.1401 167.61 54.4606 167.61 53.6647ZM178.242 62.5574V41.9553H184.561V45.7109H184.774C185.146 44.3518 185.754 43.3413 186.597 42.6796C187.439 42.0089 188.42 41.6736 189.536 41.6736C189.838 41.6736 190.149 41.696 190.468 41.7406C190.787 41.7764 191.084 41.8346 191.359 41.9151V47.6155C191.049 47.5082 190.64 47.4232 190.135 47.3607C189.638 47.2981 189.195 47.2668 188.805 47.2668C188.033 47.2668 187.337 47.4412 186.716 47.7898C186.104 48.1296 185.621 48.608 185.266 49.225C184.921 49.8331 184.747 50.5485 184.747 51.3711V62.5574H178.242Z" fill="black"/>
<path d="M194.009 62.5574V35.088H205.264C207.303 35.088 209.064 35.4903 210.544 36.2951C212.035 37.0908 213.183 38.2041 213.99 39.6348C214.797 41.0566 215.2 42.7109 215.2 44.5976C215.2 46.4933 214.788 48.1521 213.964 49.5738C213.148 50.9866 211.981 52.082 210.465 52.8599C208.948 53.6379 207.148 54.0268 205.064 54.0268H198.119V48.7958H203.84C204.833 48.7958 205.663 48.6215 206.328 48.2727C207.002 47.924 207.511 47.4367 207.858 46.8107C208.203 46.1758 208.376 45.4381 208.376 44.5976C208.376 43.7481 208.203 43.0149 207.858 42.398C207.511 41.772 207.002 41.2892 206.328 40.9493C205.654 40.6095 204.825 40.4397 203.84 40.4397H200.594V62.5574H194.009ZM224.952 35.088V62.5574H218.446V35.088H224.952ZM234.852 62.9062C233.549 62.9062 232.391 62.687 231.379 62.2488C230.377 61.8017 229.584 61.1312 228.998 60.237C228.422 59.3338 228.134 58.2027 228.134 56.8435C228.134 55.699 228.333 54.7332 228.733 53.9463C229.132 53.1595 229.682 52.5201 230.382 52.0283C231.083 51.5365 231.89 51.1654 232.803 50.9151C233.717 50.6558 234.692 50.4813 235.73 50.392C236.892 50.2847 237.827 50.1729 238.537 50.0566C239.246 49.9314 239.761 49.7571 240.08 49.5335C240.409 49.301 240.572 48.9746 240.572 48.5544V48.4873C240.572 47.7988 240.337 47.2668 239.867 46.8912C239.397 46.5156 238.763 46.3279 237.964 46.3279C237.105 46.3279 236.413 46.5156 235.89 46.8912C235.367 47.2668 235.034 47.7853 234.891 48.4471L228.892 48.2324C229.07 46.9806 229.526 45.8629 230.263 44.8792C231.007 43.8867 232.027 43.1088 233.322 42.5455C234.626 41.9732 236.191 41.687 238.018 41.687C239.322 41.687 240.523 41.8436 241.623 42.1565C242.723 42.4605 243.681 42.9076 244.496 43.4978C245.312 44.079 245.942 44.7944 246.386 45.6439C246.838 46.4933 247.064 47.4635 247.064 48.5544V62.5574H240.945V59.687H240.786C240.421 60.3845 239.956 60.9747 239.388 61.4575C238.829 61.9404 238.169 62.3025 237.406 62.5439C236.652 62.7854 235.801 62.9062 234.852 62.9062ZM236.86 58.614C237.562 58.614 238.191 58.471 238.75 58.1848C239.318 57.8986 239.769 57.5052 240.107 57.0045C240.444 56.4947 240.612 55.9046 240.612 55.234V53.2757C240.426 53.3741 240.2 53.4635 239.933 53.5439C239.677 53.6244 239.392 53.7004 239.082 53.772C238.772 53.8435 238.452 53.9062 238.125 53.9597C237.796 54.0134 237.482 54.0625 237.18 54.1073C236.568 54.2056 236.044 54.3576 235.61 54.5634C235.184 54.769 234.856 55.0373 234.626 55.3681C234.404 55.69 234.293 56.0745 234.293 56.5216C234.293 57.2012 234.533 57.7198 235.012 58.0774C235.499 58.4352 236.116 58.614 236.86 58.614ZM260.58 62.9463C258.425 62.9463 256.575 62.4993 255.032 61.6051C253.497 60.7109 252.319 59.468 251.493 57.8763C250.669 56.2757 250.256 54.4247 250.256 52.3233C250.256 50.2131 250.669 48.3622 251.493 46.7705C252.327 45.1698 253.511 43.9225 255.045 43.0283C256.589 42.1342 258.428 41.687 260.566 41.687C262.455 41.687 264.1 42.0312 265.501 42.7198C266.912 43.4083 268.011 44.383 268.8 45.6439C269.598 46.8957 270.02 48.3666 270.064 50.0566H263.985C263.861 49.0015 263.506 48.1744 262.921 47.5752C262.344 46.9761 261.59 46.6766 260.659 46.6766C259.905 46.6766 259.244 46.8912 258.678 47.3204C258.11 47.7407 257.666 48.3666 257.347 49.1982C257.036 50.0209 256.882 51.0402 256.882 52.2563C256.882 53.4724 257.036 54.5007 257.347 55.3413C257.666 56.1729 258.11 56.8033 258.678 57.2324C259.244 57.6528 259.905 57.8629 260.659 57.8629C261.262 57.8629 261.794 57.7332 262.255 57.4739C262.726 57.2146 263.111 56.8345 263.413 56.3339C263.715 55.8242 263.906 55.2071 263.985 54.4829H270.064C270.002 56.1818 269.581 57.6662 268.8 58.9359C268.029 60.2057 266.942 61.1937 265.541 61.9002C264.149 62.5976 262.495 62.9463 260.58 62.9463ZM282.945 62.9463C280.807 62.9463 278.962 62.5216 277.41 61.6721C275.867 60.8137 274.679 59.5931 273.845 58.0104C273.02 56.4187 272.608 54.5276 272.608 52.3368C272.608 50.2087 273.025 48.3487 273.858 46.757C274.692 45.1565 275.867 43.9135 277.384 43.0283C278.9 42.1342 280.688 41.687 282.745 41.687C284.2 41.687 285.53 41.9151 286.735 42.371C287.942 42.8271 288.984 43.5023 289.862 44.3964C290.74 45.2906 291.423 46.3949 291.911 47.7094C292.398 49.0149 292.642 50.5127 292.642 52.2027V53.839H274.883V50.0298H286.589C286.581 49.3324 286.417 48.7108 286.097 48.1654C285.778 47.62 285.339 47.1952 284.78 46.8912C284.23 46.5782 283.597 46.4217 282.878 46.4217C282.151 46.4217 281.499 46.5872 280.922 46.918C280.346 47.2399 279.889 47.6825 279.552 48.2459C279.215 48.8003 279.038 49.4307 279.02 50.1371V54.0134C279.02 54.854 279.185 55.5917 279.512 56.2266C279.84 56.8525 280.306 57.3397 280.909 57.6885C281.512 58.0373 282.231 58.2116 283.064 58.2116C283.64 58.2116 284.163 58.1311 284.634 57.9701C285.103 57.8093 285.507 57.5723 285.844 57.2593C286.182 56.9463 286.434 56.5619 286.603 56.1058L292.576 56.2801C292.327 57.6304 291.782 58.8063 290.939 59.8078C290.106 60.8003 289.011 61.5738 287.653 62.1282C286.296 62.6736 284.726 62.9463 282.945 62.9463Z" fill="#C66E4E"/>
</svg>
